<svg xmlns="http://www.w3.org/2000/svg" xmlns:xlink="http://www.w3.org/1999/xlink" width="431.66" height="431.66" viewBox="0 0 431.66 431.66">
  <defs>
    <clipPath id="clip-path">
      <path id="SVGID" d="M446.7,36.475h61.608V151.909H446.7ZM373.713,151.909h61.609V36.475H373.713ZM446.7,208.673h61.608V161.909H446.7Zm-72.988,0h61.609V161.909H373.713Z" transform="translate(-373.713 -36.475)" fill="#c9c9c9" stroke="#1d1e1c" stroke-width="0.873"/>
    </clipPath>
  </defs>
  <g id="Group_511" data-name="Group 511" transform="translate(-2.999 -4.795)">
    <circle id="Ellipse_42" data-name="Ellipse 42" cx="152.615" cy="152.615" r="152.615" transform="translate(2.999 220.626) rotate(-45)" fill="#ec008c"/>
    <g id="Group_473" data-name="Group 473" transform="translate(29.139 64.855)">
      <path id="Path_683" data-name="Path 683" d="M38.693,261.346h0a3.235,3.235,0,1,1,1.225-.242A3.221,3.221,0,0,1,38.692,261.346Zm0-4.558a1.324,1.324,0,0,0,0,2.648h0a1.324,1.324,0,0,0,0-2.648Z" transform="translate(-35.457 -113.533)"/>
      <path id="Path_684" data-name="Path 684" d="M450.653,224.681a1.066,1.066,0,0,1,.47.507,1.654,1.654,0,0,1,.135.485,1.487,1.487,0,0,1-.687.9,10.332,10.332,0,0,1-.883.573c-.183.113-.361.219-.519.325-2.1,1.388-3.93,2.6-5.706,3.785l-.906.6c-1.835,1.222-4,2.662-6.494,4.288-.226.148-.518.328-.849.53-.557.341-1.249.766-1.905,1.213a7.043,7.043,0,0,0-2.48,2.381,4.371,4.371,0,0,0-.32,2.7,4.955,4.955,0,0,0,.871,1.951,5.3,5.3,0,0,0,4.487,2.144,4.278,4.278,0,0,0,1.771-.533,18.286,18.286,0,0,0,1.687-1.025l7.536-4.973c2.51-1.656,5-3.3,7.449-4.9.283-.186.646-.4,1.03-.623a25.678,25.678,0,0,0,2.231-1.417c1.509-1.115,2.284-2.222,2.368-3.389a2.525,2.525,0,0,0-.511-1.558,2.935,2.935,0,0,0-1.506-1.122,3.97,3.97,0,0,0-3.152.668,22.077,22.077,0,0,0-1.9,1.267c-.278.2-.544.391-.8.56-2.385,1.613-4.453,3-6.321,4.233-2.319,1.534-4.36,2.861-6.242,4.054l-.179.112a10.581,10.581,0,0,0-1.326.933c-.211.184-.851.745-.714,1.434a1,1,0,0,0,.178.4c.5.679,1.57.137,2.538-.423.712-.413,1.482-.929,2.162-1.384.19-.128.372-.249.538-.358l.231-.151,5.175-3.417c1.792-1.186,3.592-2.376,5.457-3.615l.136-.091a5.948,5.948,0,0,1,1.131-.649.742.742,0,0,1,.818.089.779.779,0,0,1,.193,1.191,5.286,5.286,0,0,1-1.569,1.387c-1.8,1.164-3.819,2.478-5.833,3.792s-4.02,2.629-5.778,3.792c-.353.233-.681.468-1,.693a14.675,14.675,0,0,1-1.471.969,3.6,3.6,0,0,1-2.387.478,3.142,3.142,0,0,1-2.242-1.37,2.9,2.9,0,0,1-.37-2.352,4.946,4.946,0,0,1,1.906-2.312c.642-.492,1.357-.945,1.986-1.345.308-.195.6-.379.858-.552,1.873-1.254,3.811-2.527,5.518-3.649l.156-.1c1.815-1.194,3.528-2.322,5.186-3.43.365-.244.73-.5,1.093-.753.593-.415,1.208-.844,1.8-1.209a6.838,6.838,0,0,1,2.658-1.1,4.649,4.649,0,0,1,4.851,2.409,5.1,5.1,0,0,1,.507,1.418,5.474,5.474,0,0,1-.9,4.178,8.023,8.023,0,0,1-1.784,1.791c-.562.431-1.156.819-1.727,1.194l-.418.275c-2.2,1.454-4.395,2.865-6.523,4.229l-.649.417c-2.427,1.558-4.809,3.092-7.247,4.723-.256.171-.521.351-.792.536-.755.515-1.536,1.044-2.306,1.508a7.94,7.94,0,0,1-2.784,1.19,7.645,7.645,0,0,1-6.875-3.036,7.126,7.126,0,0,1-1.343-2.91,6.1,6.1,0,0,1,.788-4.382,7.311,7.311,0,0,1,2.223-2.139c.511-.353,1.056-.686,1.583-1.008.455-.279.885-.542,1.3-.816,1.89-1.265,3.66-2.433,5.448-3.611l5.571-3.655c.341-.225.745-.525,1.175-.841.55-.41,1.177-.873,1.784-1.263C449.7,224.586,450.359,224.549,450.653,224.681Z" transform="translate(-111.914 -107.644)"/>
      <path id="Path_685" data-name="Path 685" d="M150.349,384.822a1,1,0,0,0-.473.432,1.563,1.563,0,0,0-.16.438,1.369,1.369,0,0,0,.567.879,9.294,9.294,0,0,0,.771.6c.162.119.317.23.456.34,1.838,1.441,3.434,2.7,4.984,3.929l.792.624c1.6,1.268,3.5,2.762,5.673,4.454.2.154.455.341.745.553.487.356,1.1.8,1.668,1.265a6.51,6.51,0,0,1,2.11,2.386,4.048,4.048,0,0,1,.092,2.522,4.6,4.6,0,0,1-.952,1.736,4.922,4.922,0,0,1-4.308,1.641,3.977,3.977,0,0,1-1.6-.627,16.784,16.784,0,0,1-1.481-1.074l-6.585-5.165c-2.194-1.719-4.372-3.424-6.51-5.092-.247-.194-.566-.416-.9-.654a23.448,23.448,0,0,1-1.954-1.477c-1.309-1.144-1.942-2.225-1.93-3.31a2.331,2.331,0,0,1,.59-1.4,2.73,2.73,0,0,1,1.476-.923,3.686,3.686,0,0,1,2.863.856,20.734,20.734,0,0,1,1.657,1.314c.242.2.474.4.693.577,2.081,1.67,3.887,3.106,5.519,4.389,2.026,1.592,3.812,2.972,5.459,4.216l.157.118a9.866,9.866,0,0,1,1.154.961c.18.188.73.753.55,1.379a.907.907,0,0,1-.2.358c-.51.59-1.461.008-2.311-.582-.626-.436-1.3-.97-1.893-1.442-.166-.132-.325-.258-.47-.371l-.2-.158c-1.531-1.2-3.023-2.371-4.523-3.547-1.566-1.231-3.138-2.468-4.768-3.753l-.118-.094a5.493,5.493,0,0,0-1-.685.689.689,0,0,0-.763.02.722.722,0,0,0-.267,1.086,4.894,4.894,0,0,0,1.343,1.4c1.571,1.21,3.34,2.578,5.1,3.944s3.514,2.733,5.05,3.94c.308.242.594.484.871.717a13.607,13.607,0,0,0,1.285,1.006,3.336,3.336,0,0,0,2.169.622,2.91,2.91,0,0,0,2.174-1.1,2.682,2.682,0,0,0,.52-2.145,4.579,4.579,0,0,0-1.585-2.279c-.556-.5-1.183-.977-1.733-1.393-.271-.2-.524-.4-.751-.576-1.636-1.3-3.329-2.623-4.822-3.788l-.135-.107c-1.587-1.24-3.085-2.412-4.532-3.56-.319-.254-.637-.516-.954-.779-.516-.428-1.052-.871-1.572-1.252a6.345,6.345,0,0,0-2.372-1.217,4.309,4.309,0,0,0-4.663,1.858,4.792,4.792,0,0,0-.576,1.272,5.074,5.074,0,0,0,.512,3.927,7.415,7.415,0,0,0,1.513,1.79c.486.441,1.005.843,1.505,1.234l.366.285c1.918,1.509,3.842,2.978,5.7,4.4l.568.434c2.125,1.622,4.209,3.221,6.338,4.911.223.177.454.365.691.556.659.532,1.338,1.081,2.014,1.566a7.383,7.383,0,0,0,2.482,1.311,7.089,7.089,0,0,0,6.582-2.286,6.616,6.616,0,0,0,1.46-2.585,5.655,5.655,0,0,0-.4-4.107,6.745,6.745,0,0,0-1.891-2.145c-.446-.364-.923-.714-1.387-1.051-.4-.293-.776-.568-1.134-.851-1.652-1.312-3.2-2.525-4.76-3.748l-4.87-3.8c-.3-.234-.648-.542-1.021-.867-.478-.419-1.021-.894-1.554-1.3C151.234,384.806,150.63,384.722,150.349,384.822Z" transform="translate(-55.728 -138.819)"/>
      <path id="Path_686" data-name="Path 686" d="M427.477,154.043h0a3.234,3.234,0,1,1,1.225-.242A3.22,3.22,0,0,1,427.476,154.043Zm0-4.557a1.324,1.324,0,0,0,0,2.648h0a1.31,1.31,0,0,0,.5-.1,1.323,1.323,0,0,0-.5-2.548Z" transform="translate(-111.132 -92.646)"/>
      <path id="Path_687" data-name="Path 687" d="M421.767,354.184a3.308,3.308,0,0,1-.59-.054,3.232,3.232,0,1,1,.59.054Zm-.006-4.557a1.33,1.33,0,1,0,.244.023A1.32,1.32,0,0,0,421.76,349.627Z" transform="translate(-110.02 -131.603)"/>
      <path id="Path_688" data-name="Path 688" d="M350.129,419.308a3.233,3.233,0,0,1-.006-6.466,3.317,3.317,0,0,1,.591.054,3.233,3.233,0,0,1-.585,6.412Zm-.006-4.557a1.329,1.329,0,1,0,.244.023A1.4,1.4,0,0,0,350.122,414.751Z" transform="translate(-96.076 -144.279)"/>
      <path id="Path_689" data-name="Path 689" d="M189.82,445.931h0a3.234,3.234,0,1,1,.59-.054A3.307,3.307,0,0,1,189.82,445.931Zm0-4.557a1.322,1.322,0,0,0-1.3,1.564,1.321,1.321,0,0,0,1.3,1.083h0a1.374,1.374,0,0,0,.242-.022,1.324,1.324,0,0,0-.238-2.625Z" transform="translate(-64.874 -149.461)"/>
      <path id="Path_690" data-name="Path 690" d="M149.629,309.162h0a3.234,3.234,0,0,1-.586-6.414,3.309,3.309,0,0,1,.59-.054,3.234,3.234,0,0,1,0,6.468Zm0-4.558a1.385,1.385,0,0,0-.243.022,1.324,1.324,0,0,0,.238,2.625h0a1.324,1.324,0,0,0,0-2.647Z" transform="translate(-57.051 -122.839)"/>
      <g id="Group_467" data-name="Group 467" transform="translate(306.25 241.342)">
        <path id="Path_691" data-name="Path 691" d="M420.244,388a.919.919,0,0,1-.174-.016.955.955,0,0,1-.766-1.112l1.3-7.043a.955.955,0,1,1,1.878.347l-1.3,7.043A.955.955,0,0,1,420.244,388Z" transform="translate(-416.418 -379.042)"/>
        <path id="Path_692" data-name="Path 692" d="M423.723,385.819a1,1,0,0,1-.175-.016l-7.042-1.3a.955.955,0,1,1,.346-1.878l7.043,1.3a.955.955,0,0,1-.172,1.894Z" transform="translate(-415.724 -379.736)"/>
      </g>
      <g id="Group_469" data-name="Group 469" transform="translate(251.836 86.088)">
        <path id="Path_693" data-name="Path 693" d="M357.366,227.053h0a3.234,3.234,0,1,1,3.051-2.161A3.236,3.236,0,0,1,357.366,227.053Zm0-4.557a1.327,1.327,0,0,0-1.249.885,1.323,1.323,0,0,0,.809,1.687,1.343,1.343,0,0,0,1.687-.81,1.323,1.323,0,0,0-.809-1.686A1.3,1.3,0,0,0,357.367,222.5Z" transform="translate(-349.321 -192.945)"/>
        <g id="Group_468" data-name="Group 468">
          <path id="Path_694" data-name="Path 694" d="M354.3,194.634a.954.954,0,0,1-.862-.542l-3.094-6.46a.955.955,0,0,1,1.723-.825l3.094,6.459a.954.954,0,0,1-.861,1.367Z" transform="translate(-348.565 -186.265)"/>
          <path id="Path_695" data-name="Path 695" d="M349.114,193.359a.955.955,0,0,1-.413-1.816l6.459-3.1a.955.955,0,0,1,.826,1.723l-6.459,3.1A.953.953,0,0,1,349.114,193.359Z" transform="translate(-348.158 -186.672)"/>
        </g>
      </g>
      <g id="Group_470" data-name="Group 470" transform="translate(136.762 168.777)">
        <path id="Path_696" data-name="Path 696" d="M212.92,295.973a.953.953,0,0,1-.34-.063l-6.693-2.551a.955.955,0,1,1,.681-1.785l6.692,2.551a.955.955,0,0,1-.341,1.848Z" transform="translate(-205.273 -289.44)"/>
        <path id="Path_697" data-name="Path 697" d="M208.8,297.544a.972.972,0,0,1-.34-.063.956.956,0,0,1-.552-1.233l2.549-6.693a.955.955,0,0,1,1.785.68l-2.55,6.693A.955.955,0,0,1,208.8,297.544Z" transform="translate(-205.773 -288.94)"/>
      </g>
      <g id="Group_471" data-name="Group 471" transform="translate(33.927 126.657)">
        <path id="Path_698" data-name="Path 698" d="M85.144,243.7a.963.963,0,0,1-.369-.074l-6.6-2.766a.955.955,0,1,1,.738-1.762l6.6,2.766a.955.955,0,0,1-.369,1.836Z" transform="translate(-77.584 -237.103)"/>
        <path id="Path_699" data-name="Path 699" d="M80.922,245.156a.957.957,0,0,1-.88-1.325l2.765-6.606a.955.955,0,0,1,1.762.738L81.8,244.568A.956.956,0,0,1,80.922,245.156Z" transform="translate(-78.048 -236.639)"/>
      </g>
      <g id="Group_472" data-name="Group 472" transform="translate(337.185 153.173)">
        <path id="Path_700" data-name="Path 700" d="M460.3,277.523a.955.955,0,0,1-.808-.444l-3.833-6.049a.955.955,0,0,1,1.613-1.022l3.834,6.049a.955.955,0,0,1-.805,1.466Z" transform="translate(-454.404 -269.564)"/>
        <path id="Path_701" data-name="Path 701" d="M455.092,276.683a.955.955,0,0,1-.511-1.762l6.048-3.834a.955.955,0,0,1,1.022,1.614l-6.048,3.834A.955.955,0,0,1,455.092,276.683Z" transform="translate(-454.136 -269.832)"/>
      </g>
      <path id="Path_702" data-name="Path 702" d="M353.406,88.495a.955.955,0,0,1-.919-1.214l2.037-7.214a.955.955,0,0,1,1.6-.406l5.229,5.369a.956.956,0,0,1-.449,1.592l-7.266,1.843A.941.941,0,0,1,353.406,88.495Zm2.506-6.318-1.138,4.03,4.059-1.029Z" transform="translate(-97.158 -79.371)"/>
      <path id="Path_703" data-name="Path 703" d="M419.255,302.65a.939.939,0,0,1-.126-.009l-7.431-.989a.956.956,0,0,1-.631-1.529l4.573-5.94a.955.955,0,0,1,1.639.218l2.858,6.93a.955.955,0,0,1-.883,1.319Zm-5.665-2.673,4.152.553-1.6-3.872Z" transform="translate(-108.529 -121.11)"/>
      <path id="Path_704" data-name="Path 704" d="M102.255,367.746a.956.956,0,0,1-.938-1.133l1.4-7.364a.955.955,0,0,1,1.562-.545l5.677,4.895a.955.955,0,0,1-.308,1.625l-7.077,2.469A.961.961,0,0,1,102.255,367.746Zm2.029-6.515-.783,4.114,3.954-1.38Z" transform="translate(-48.273 -133.696)"/>
      <path id="Path_705" data-name="Path 705" d="M307.8,169.256a3.435,3.435,0,0,0,3.895-4.293,3.687,3.687,0,0,0-3.2-2.707,14.326,14.326,0,0,1-2.762-.031c-.07.01-.061.093-.056.176-.141,1.1-.836,1.523-1.032,2.456A3.715,3.715,0,0,0,307.8,169.256Z" transform="translate(-87.837 -95.498)" fill="none"/>
    </g>
    <g id="Group_3477" data-name="Group 3477" transform="translate(-230.858 9.144)">
      <g id="Group_3455" data-name="Group 3455" transform="translate(301.184 352.18)">
        <line id="Line_11" data-name="Line 11" x1="272.371" fill="none" stroke="#1d1e1c" stroke-linecap="round" stroke-linejoin="round" stroke-width="0.75"/>
      </g>
      <g id="Group_3461" data-name="Group 3461" transform="translate(390.523 26.535)">
        <g id="Group_3457" data-name="Group 3457" transform="translate(30.247 16.389)">
          <path id="SVGID-2" data-name="SVGID" d="M446.7,36.475h61.608V151.909H446.7ZM373.713,151.909h61.609V36.475H373.713ZM446.7,208.673h61.608V161.909H446.7Zm-72.988,0h61.609V161.909H373.713Z" transform="translate(-373.713 -36.475)" fill="#fff"/>
          <g id="Group_3456" data-name="Group 3456" clip-path="url(#clip-path)">
            <path id="Path_6844" data-name="Path 6844" d="M458.8,234.07h34.058L424.214,33.2H390.155Z" transform="translate(-363.045 -38.599)" fill="#f0f0f0" stroke="#1d1e1c" stroke-width="0.873"/>
            <path id="Path_6845" data-name="Path 6845" d="M442.934,234.07h16.927L391.212,33.2H374.284Z" transform="translate(-373.342 -38.599)" fill="#eaeaea" stroke="#1d1e1c" stroke-width="0.873"/>
          </g>
          <path id="SVGID-3" data-name="SVGID" d="M446.7,36.475h61.608V151.909H446.7ZM373.713,151.909h61.609V36.475H373.713ZM446.7,208.673h61.608V161.909H446.7Zm-72.988,0h61.609V161.909H373.713Z" transform="translate(-373.713 -36.475)" fill="none" stroke="#1d1e1c" stroke-width="0.873"/>
        </g>
        <path id="Path_6846" data-name="Path 6846" d="M360.361,26.535a4.965,4.965,0,0,1,3.875,1.878H536.509a4.994,4.994,0,1,1,0,6.229H364.235a4.984,4.984,0,1,1-3.875-8.107Z" transform="translate(-355.368 -26.535)" fill="#d9d9d9" stroke="#1d1e1c" stroke-width="0.873"/>
        <g id="Group_3458" data-name="Group 3458" transform="translate(11.72)">
          <path id="Path_6847" data-name="Path 6847" d="M446.312,34.642V26.535h4.613v8.107h6.981V26.535h4.613v8.107H469.5V26.535h4.615v8.107h4.092v180.48H453.854a332.425,332.425,0,0,1,7.909-58.64c-18.943-57.622-20.93-121.84-20.93-121.84Z" transform="translate(-311.638 -26.535)" fill="#eeedec" stroke="#1d1e1c" stroke-width="0.873"/>
          <path id="Path_6848" data-name="Path 6848" d="M366.568,34.642V26.535h4.613v8.107h6.981V26.535h4.613v8.107h6.979V26.535h4.615v8.107h5.477s-1.987,64.218-20.928,121.84a332.418,332.418,0,0,1,7.909,58.64H362.476V34.642Z" transform="translate(-362.476 -26.535)" fill="#eeedec" stroke="#1d1e1c" stroke-width="0.873"/>
        </g>
      </g>
      <g id="Group_3470" data-name="Group 3470" transform="translate(413.654 176.671)">
        <g id="Group_3462" data-name="Group 3462" transform="translate(9.208 160.362)">
          <rect id="Rectangle_425" data-name="Rectangle 425" width="3.439" height="15.045" transform="translate(27.974 15.046) rotate(180)" fill="#d9d9d9" stroke="#1d1e1c" stroke-width="0.873"/>
          <rect id="Rectangle_426" data-name="Rectangle 426" width="3.438" height="15.045" transform="translate(6.877 15.046) rotate(180)" fill="#d9d9d9" stroke="#1d1e1c" stroke-width="0.873"/>
          <rect id="Rectangle_427" data-name="Rectangle 427" width="3.438" height="15.045" transform="translate(24.536 15.046) rotate(180)" fill="#eeedec" stroke="#1d1e1c" stroke-width="0.873"/>
          <rect id="Rectangle_428" data-name="Rectangle 428" width="3.439" height="15.045" transform="translate(3.439 15.046) rotate(180)" fill="#eeedec" stroke="#1d1e1c" stroke-width="0.873"/>
          <rect id="Rectangle_429" data-name="Rectangle 429" width="3.439" height="15.045" transform="translate(129.674 15.046) rotate(180)" fill="#d9d9d9" stroke="#1d1e1c" stroke-width="0.873"/>
          <rect id="Rectangle_430" data-name="Rectangle 430" width="3.438" height="15.045" transform="translate(108.576 15.046) rotate(180)" fill="#d9d9d9" stroke="#1d1e1c" stroke-width="0.873"/>
          <rect id="Rectangle_431" data-name="Rectangle 431" width="3.438" height="15.045" transform="translate(126.235 15.046) rotate(180)" fill="#eeedec" stroke="#1d1e1c" stroke-width="0.873"/>
          <rect id="Rectangle_432" data-name="Rectangle 432" width="3.439" height="15.045" transform="translate(105.138 15.046) rotate(180)" fill="#eeedec" stroke="#1d1e1c" stroke-width="0.873"/>
        </g>
        <g id="Group_3463" data-name="Group 3463" transform="translate(0 54.045)">
          <rect id="Rectangle_433" data-name="Rectangle 433" width="134.639" height="107.77" transform="translate(143.925 107.846) rotate(180)" fill="#d9d9d9" stroke="#1d1e1c" stroke-width="0.873"/>
          <rect id="Rectangle_434" data-name="Rectangle 434" width="119.068" height="107.534" transform="translate(4.183 0.312)" fill="#eeedec" stroke="#1d1e1c" stroke-width="0.873"/>
          <rect id="Rectangle_435" data-name="Rectangle 435" width="26.078" height="5.206" transform="translate(149.33 5.206) rotate(180)" fill="#d9d9d9" stroke="#1d1e1c" stroke-width="0.873"/>
          <rect id="Rectangle_436" data-name="Rectangle 436" width="123.251" height="5.206" transform="translate(123.251 5.206) rotate(180)" fill="#eeedec" stroke="#1d1e1c" stroke-width="0.873"/>
        </g>
        <g id="Group_3465" data-name="Group 3465" transform="translate(93.702)">
          <g id="Group_3464" data-name="Group 3464">
            <line id="Line_12" data-name="Line 12" x1="5.322" y2="13.959" transform="translate(10.362 5.333)" fill="none" stroke="#1d1e1c" stroke-width="0.873"/>
            <path id="Path_6850" data-name="Path 6850" d="M437.272,122.048l-.523-1.952a2.023,2.023,0,0,0-2.476-1.43h0a2.022,2.022,0,0,0-1.43,2.477h0a2.022,2.022,0,0,0,2.476,1.43Z" transform="translate(-421.98 -116.941)" fill="#fff" stroke="#1d1e1c" stroke-width="0.873"/>
            <path id="Path_6851" data-name="Path 6851" d="M439.389,126.881H427.93l3.876,10.871a5.813,5.813,0,0,1-.42,4.821l-2.889,5.082a16.233,16.233,0,0,0-1.454,13.276c.918,2.636,2.6,4.833,5.657,4.833h5.139c3.057,0,4.739-2.2,5.657-4.833a16.227,16.227,0,0,0-1.456-13.276l-2.887-5.082a5.813,5.813,0,0,1-.42-4.821l3.875-10.871H431.15" transform="translate(-426.228 -111.567)" fill="#fff" stroke="#1d1e1c" stroke-width="0.873"/>
            <path id="Path_6852" data-name="Path 6852" d="M434.28,121.775a2.406,2.406,0,1,0,2.407-2.407A2.405,2.405,0,0,0,434.28,121.775Z" transform="translate(-421.003 -116.441)" fill="#fff" stroke="#1d1e1c" stroke-width="0.873"/>
            <path id="Path_6853" data-name="Path 6853" d="M436.536,122.474l1.43-1.43a2.024,2.024,0,0,0,0-2.859h0a2.021,2.021,0,0,0-2.859,0h0a2.021,2.021,0,0,0,0,2.859Z" transform="translate(-420.851 -117.593)" fill="#fff" stroke="#1d1e1c" stroke-width="0.873"/>
            <path id="Path_6854" data-name="Path 6854" d="M435.484,119.69a2.407,2.407,0,1,0,3.288.88A2.408,2.408,0,0,0,435.484,119.69Z" transform="translate(-421.003 -116.441)" fill="#fff" stroke="#1d1e1c" stroke-width="0.873"/>
            <path id="Path_6855" data-name="Path 6855" d="M435.977,122.048l1.954.524a2.021,2.021,0,0,0,2.475-1.43h0a2.022,2.022,0,0,0-1.43-2.477h0a2.021,2.021,0,0,0-2.475,1.43Z" transform="translate(-419.902 -116.941)" fill="#fff" stroke="#1d1e1c" stroke-width="0.873"/>
            <path id="Path_6856" data-name="Path 6856" d="M437.891,119.69a2.407,2.407,0,1,0,.88,3.288A2.409,2.409,0,0,0,437.891,119.69Z" transform="translate(-421.003 -116.441)" fill="#fff" stroke="#1d1e1c" stroke-width="0.873"/>
            <path id="Path_6857" data-name="Path 6857" d="M435.977,121.2l.524,1.952a2.021,2.021,0,0,0,2.475,1.43h0a2.022,2.022,0,0,0,1.43-2.477h0a2.021,2.021,0,0,0-2.475-1.43Z" transform="translate(-419.902 -115.638)" fill="#fff" stroke="#1d1e1c" stroke-width="0.873"/>
            <path id="Path_6858" data-name="Path 6858" d="M439.093,121.775a2.406,2.406,0,1,0-2.406,2.406A2.406,2.406,0,0,0,439.093,121.775Z" transform="translate(-421.003 -116.441)" fill="#fff" stroke="#1d1e1c" stroke-width="0.873"/>
            <path id="Path_6859" data-name="Path 6859" d="M436.536,121.1l-1.43,1.43a2.021,2.021,0,0,0,0,2.859h0a2.024,2.024,0,0,0,2.859,0h0a2.024,2.024,0,0,0,0-2.859Z" transform="translate(-420.851 -115.316)" fill="#fff" stroke="#1d1e1c" stroke-width="0.873"/>
            <path id="Path_6860" data-name="Path 6860" d="M437.891,123.86a2.407,2.407,0,1,0-3.289-.882A2.409,2.409,0,0,0,437.891,123.86Z" transform="translate(-421.003 -116.441)" fill="#fff" stroke="#1d1e1c" stroke-width="0.873"/>
            <path id="Path_6861" data-name="Path 6861" d="M437.272,121.2l-1.952-.524a2.022,2.022,0,0,0-2.476,1.43h0a2.022,2.022,0,0,0,1.43,2.477h0a2.023,2.023,0,0,0,2.476-1.43Z" transform="translate(-421.98 -115.638)" fill="#fff" stroke="#1d1e1c" stroke-width="0.873"/>
            <path id="Path_6862" data-name="Path 6862" d="M435.537,123.224a1.9,1.9,0,1,0-.7-2.6A1.9,1.9,0,0,0,435.537,123.224Z" transform="translate(-420.805 -116.243)" fill="#fdea18" stroke="#1d1e1c" stroke-width="0.873"/>
            <path id="Path_6863" data-name="Path 6863" d="M435.74,120.828" transform="translate(-420.056 -115.494)" fill="none" stroke="#1d1e1c" stroke-width="0.873"/>
          </g>
          <path id="Path_6864" data-name="Path 6864" d="M426.722,147.532c.918,2.636,2.6,4.833,5.657,4.833h5.139c3.057,0,4.739-2.2,5.657-4.833" transform="translate(-425.907 -98.168)" fill="#d9d9d9" stroke="#1d1e1c" stroke-width="0.873"/>
          <path id="Path_6865" data-name="Path 6865" d="M426.806,142h16.912a16.281,16.281,0,0,1,.562,4.575H426.244A16.281,16.281,0,0,1,426.806,142Z" transform="translate(-426.22 -101.759)" fill="#d9d9d9" stroke="#1d1e1c" stroke-width="0.873"/>
        </g>
        <g id="Group_3469" data-name="Group 3469" transform="translate(8.913 61.745)">
          <rect id="Rectangle_437" data-name="Rectangle 437" width="109.608" height="22.256" fill="#fff" stroke="#1d1e1c" stroke-width="0.873"/>
          <g id="Group_3466" data-name="Group 3466" transform="translate(14.598 8.89)">
            <path id="Path_6866" data-name="Path 6866" d="M429.116,163.163a2.73,2.73,0,1,0,2.729-2.73A2.729,2.729,0,0,0,429.116,163.163Z" transform="translate(-354.163 -160.433)" fill="#9d9c9a" stroke="#1d1e1c" stroke-width="0.873"/>
            <path id="Path_6867" data-name="Path 6867" d="M383.657,163.163a2.73,2.73,0,1,0,2.729-2.73A2.729,2.729,0,0,0,383.657,163.163Z" transform="translate(-383.657 -160.433)" fill="#9d9c9a" stroke="#1d1e1c" stroke-width="0.873"/>
          </g>
          <rect id="Rectangle_438" data-name="Rectangle 438" width="109.608" height="22.256" transform="translate(0 28.869)" fill="#fff" stroke="#1d1e1c" stroke-width="0.873"/>
          <g id="Group_3467" data-name="Group 3467" transform="translate(14.598 37.759)">
            <path id="Path_6868" data-name="Path 6868" d="M429.116,180.672a2.73,2.73,0,1,0,2.729-2.73A2.729,2.729,0,0,0,429.116,180.672Z" transform="translate(-354.163 -177.942)" fill="#9d9c9a" stroke="#1d1e1c" stroke-width="0.873"/>
            <path id="Path_6869" data-name="Path 6869" d="M383.657,180.672a2.73,2.73,0,1,0,2.729-2.73A2.729,2.729,0,0,0,383.657,180.672Z" transform="translate(-383.657 -177.942)" fill="#9d9c9a" stroke="#1d1e1c" stroke-width="0.873"/>
          </g>
          <rect id="Rectangle_439" data-name="Rectangle 439" width="109.608" height="37.935" transform="translate(0 57.738)" fill="#fff" stroke="#1d1e1c" stroke-width="0.873"/>
          <g id="Group_3468" data-name="Group 3468" transform="translate(14.598 73.977)">
            <path id="Path_6870" data-name="Path 6870" d="M429.116,202.637a2.73,2.73,0,1,0,2.729-2.729A2.73,2.73,0,0,0,429.116,202.637Z" transform="translate(-354.163 -199.908)" fill="#9d9c9a" stroke="#1d1e1c" stroke-width="0.873"/>
            <path id="Path_6871" data-name="Path 6871" d="M383.657,202.637a2.73,2.73,0,1,0,2.729-2.729A2.73,2.73,0,0,0,383.657,202.637Z" transform="translate(-383.657 -199.908)" fill="#9d9c9a" stroke="#1d1e1c" stroke-width="0.873"/>
          </g>
        </g>
      </g>
      <g id="Group_3476" data-name="Group 3476" transform="translate(304.036 57.641)">
        <g id="Group_3471" data-name="Group 3471" transform="translate(9.412 153.855)">
          <path id="Path_6872" data-name="Path 6872" d="M341.346,224.323V211.3l11.649.062,3.671,12.958" transform="translate(-287.391 -91.618)" fill="#fbd1be" stroke="#1d1e1c" stroke-linecap="round" stroke-linejoin="round" stroke-width="0.75"/>
          <path id="Path_6873" data-name="Path 6873" d="M312.1,215.04l-.64,9.834,10.594,1.8.579-14.379" transform="translate(-306.779 -90.974)" fill="#fbd1be" stroke="#1d1e1c" stroke-linecap="round" stroke-linejoin="round" stroke-width="0.75"/>
          <path id="Path_6874" data-name="Path 6874" d="M374.864,156.394c-.773-8.6-1.552-8.392-2.463-14.521l-46.376-3.159c-.165,1.616-.285,6.4-.356,8.021l-5.774,39.594-11.273,76.65,17.43.007,25.617-96.768L362.1,265.83l3.289-.656,11.322-2.721C375.572,257,378.327,194.844,374.864,156.394Z" transform="translate(-308.622 -138.714)" fill="#fff" stroke="#1d1e1c" stroke-linecap="round" stroke-linejoin="round" stroke-width="0.75"/>
          <path id="Path_6875" data-name="Path 6875" d="M342.556,229.378h30.056c4.508,0,5.733-5.626,3.458-6.983-.376-.224-4.717-.414-8.453-2.045-3.54-1.545-11.324-4.541-11.324-4.541h0a3.777,3.777,0,0,1-5.365,4.035l-8.371-4.035S335.636,229.378,342.556,229.378Z" transform="translate(-288.601 -88.694)" fill="#d9d9d9" stroke="#1d1e1c" stroke-linecap="round" stroke-linejoin="round" stroke-width="0.75"/>
          <path id="Path_6876" data-name="Path 6876" d="M328.152,220.118c-3.075-3.613-6.92-3.81-11.037-.439a2.427,2.427,0,0,1-2.092.549c-2.727-.546-3.791-4.419-3.791-4.419s-3.487,9.087,0,13.568h19.936C331.253,229.378,334.154,227.17,328.152,220.118Z" transform="translate(-307.934 -88.694)" fill="#d9d9d9" stroke="#1d1e1c" stroke-linecap="round" stroke-linejoin="round" stroke-width="0.75"/>
        </g>
        <g id="Group_3475" data-name="Group 3475">
          <path id="Path_6877" data-name="Path 6877" d="M413.655,127.061,401.808,88.426a5.152,5.152,0,0,0-9.934.3l-8.285,34.323S405.22,131.46,413.655,127.061Z" transform="translate(-250.571 -19.849)" fill="#fff" stroke="#1d1e1c" stroke-width="0.75"/>
          <path id="Path_6878" data-name="Path 6878" d="M375.373,104.42l8.112-3.449a28.971,28.971,0,0,0,5.644-6.178c1.317-1.959,2.419-4.214,4.495-5.5a21.912,21.912,0,0,1,3.279-1.484L394.517,97.87l1.41.9c3.118.34,4.1-.59,6.866.884.313.167.622.335.92.5l-7.937,3.812-8.234-.145s-2.8,2.744-4.317,4.053" transform="translate(-255.902 -17.884)" fill="#fbd1be" stroke="#1d1e1c" stroke-linecap="round" stroke-linejoin="round" stroke-width="0.75"/>
          <g id="Group_3472" data-name="Group 3472" transform="translate(20.146)">
            <path id="Path_6879" data-name="Path 6879" d="M334.646,94.924c-.778,1.453,3.286,21.453-4.984,33.382l-14.529,21.743V102.233c0-22.153.582-45.271,9.824-51.423,4.552-3.031,7.428-.93,7.428-.93" transform="translate(-315.132 -42.955)" stroke="#1d1e1c" stroke-linecap="round" stroke-linejoin="round" stroke-width="0.75"/>
            <path id="Path_6880" data-name="Path 6880" d="M343.757,86.951l2.584,9.2,4.379,1.58,2.49.9-3.179,10.493L328.657,111l-4.3-9.707,2.056-3.481c2.232-.615,4.5-1.134,6.7-1.8l-.432-18.071" transform="translate(-309.144 -24.288)" fill="#fbd1be" stroke="#1d1e1c" stroke-linecap="round" stroke-linejoin="round" stroke-width="0.75"/>
            <path id="Path_6881" data-name="Path 6881" d="M331.745,92.165s11.129,13.3,21.276,13.664c5.352.193,13.533-10.966,14.549-29.4a73.034,73.034,0,0,0-.163-10.143c-.016-.2-.641-7.106-.661-7.312l-6.331-6.9L336.7,55.323l-14.11,13.227-.5,11.167,3.454,7.789,6.2,4.66" transform="translate(-310.619 -41.072)" fill="#fbd1be" stroke="#1d1e1c" stroke-linecap="round" stroke-linejoin="round" stroke-width="0.75"/>
            <path id="Path_6882" data-name="Path 6882" d="M332.7,64.6c2.317-2.73,6.364-3.288,10.49-.8" transform="translate(-303.735 -34.498)" fill="none" stroke="#1d1e1c" stroke-linecap="round" stroke-linejoin="round" stroke-width="1"/>
            <path id="Path_6883" data-name="Path 6883" d="M344.325,64.376c2.546-2.145,7.176-.625,9.522,2" transform="translate(-296.191 -33.751)" fill="none" stroke="#1d1e1c" stroke-linecap="round" stroke-linejoin="round" stroke-width="1"/>
            <path id="Path_6884" data-name="Path 6884" d="M339.458,68.3a1.576,1.576,0,1,1-1.519-1.631A1.575,1.575,0,0,1,339.458,68.3Z" transform="translate(-301.393 -31.601)" fill="#1d1e1c"/>
            <path id="Path_6885" data-name="Path 6885" d="M349.062,68.648a1.576,1.576,0,1,1-1.518-1.631A1.578,1.578,0,0,1,349.062,68.648Z" transform="translate(-295.162 -31.377)" fill="#1d1e1c"/>
            <path id="Path_6886" data-name="Path 6886" d="M336.688,74.066c2.6,4.828,5.667,4.717,7.007,3.4" transform="translate(-301.146 -26.803)" fill="none" stroke="#1d1e1c" stroke-linecap="round" stroke-linejoin="round" stroke-width="0.75"/>
            <path id="Path_6887" data-name="Path 6887" d="M327.306,53.782c5.99-7.273,16.526-10.663,25.448-6.711,4.811-2.341,14.478,1.37,17.439,8.077,3.312,7.5-.969,17.284-.969,17.284-.3-5.624-5.655-9.687-10.966-11.291-3,4.322-10.3,5.764-16.171,7.345a5.828,5.828,0,0,0-4.231,4.782s2.231,11.154-1.367,15.131l-2.62-8.62a5.187,5.187,0,0,0-1.258-3.029,2.213,2.213,0,0,0-2.688-.6c-7.944,4.905,3.509,20.343,3.509,20.343l2.8,3.565c-8.407-5.08-15.487-11.893-16.585-22.1C318.721,69.322,321.89,60.359,327.306,53.782Z" transform="translate(-312.305 -45.401)" stroke="#1d1e1c" stroke-linecap="round" stroke-linejoin="round" stroke-width="0.75"/>
            <path id="Path_6888" data-name="Path 6888" d="M342.567,66.528h0a9.357,9.357,0,0,0,2.358,6.562,1.378,1.378,0,0,1,.381.777c.219,2.366-2.041,3.406-4.191,2.841" transform="translate(-298.275 -31.694)" fill="none" stroke="#1d1e1c" stroke-linecap="round" stroke-linejoin="round" stroke-width="0.75"/>
          </g>
          <g id="Group_3473" data-name="Group 3473" transform="translate(0 73.524)">
            <path id="Path_6889" data-name="Path 6889" d="M327.241,148.75c-9.337,1.552-21.035,2.335-24.1-4.3-2.247-4.869,12.556-31.609,19.334-40.389,2.938-3.805,6.071-8.689,10.3-11.129a31.85,31.85,0,0,1,7.556-2.938l1.021.856s15.723,14.491,23.8,0l.889-.429,1.083.391c4.152,1.919,7.044,3.12,9.37,5.675.777.851,21.519,19.016,21.519,19.016l29.368-16.59,2.892,8.516s-13.228,13.914-24.4,22.844c-5.949,4.752-7.558,4.043-12.785.856,0,0-15.753-11.316-19.09-13.553,0,0,5.715,53.507,5.835,54.673h-1.9l-5.774,1.118a73.253,73.253,0,0,1-15.636,1.317l-28.4-1.2,1.278-14.633.45-6.549c.5-8.692,2.778-23.741,2.778-23.741l.9-5.106c-5.255,5.886-11.078,12.453-11.078,12.453l5.626-.073" transform="translate(-302.914 -89.993)" fill="#fff" stroke="#1d1e1c" stroke-linecap="round" stroke-linejoin="round" stroke-width="0.75"/>
            <line id="Line_13" data-name="Line 13" x1="3.298" transform="translate(16.251 45.914)" fill="none" stroke="#1d1e1c" stroke-linecap="round" stroke-linejoin="round" stroke-width="0.75"/>
            <path id="Path_6890" data-name="Path 6890" d="M329.725,104.763c-.246.181-4.061,4.429-8.236,9.108" transform="translate(-290.862 -80.41)" fill="none" stroke="#1d1e1c" stroke-linecap="round" stroke-linejoin="round" stroke-width="0.75"/>
            <line id="Line_14" data-name="Line 14" x1="16.511" y2="37.093" transform="translate(48.757 31.217)" fill="none" stroke="#1d1e1c" stroke-linecap="round" stroke-linejoin="round" stroke-width="0.75"/>
            <line id="Line_15" data-name="Line 15" x1="13.876" y2="4.648" transform="translate(48.315 73.767)" fill="none" stroke="#1d1e1c" stroke-linecap="round" stroke-linejoin="round" stroke-width="0.75"/>
            <line id="Line_16" data-name="Line 16" x1="0.513" y1="4.932" transform="translate(70.228 15.643)" fill="none" stroke="#1d1e1c" stroke-linecap="round" stroke-linejoin="round" stroke-width="0.75"/>
          </g>
          <line id="Line_17" data-name="Line 17" x2="0.779" y2="7.287" transform="translate(70.741 97.876)" fill="none" stroke="#1d1e1c" stroke-linecap="round" stroke-linejoin="round" stroke-width="0.75"/>
          <line id="Line_18" data-name="Line 18" x1="3.335" y1="11.911" transform="translate(151.267 91.346)" fill="none" stroke="#1d1e1c" stroke-linecap="round" stroke-width="0.75"/>
          <line id="Line_19" data-name="Line 19" x1="1.429" y2="9.211" transform="translate(141.738 92.141)" fill="none" stroke="#1d1e1c" stroke-linecap="round" stroke-width="0.75"/>
          <g id="Group_3474" data-name="Group 3474" transform="translate(29.513 108.091)">
            <path id="Path_6891" data-name="Path 6891" d="M340.46,163.021l2.378-16.114a14.041,14.041,0,0,0-1.436-8.453,22.526,22.526,0,0,1-2.467-13.441l.96-6.5-6.979-1.029s-8.153,16.086-10.468,31.777l-1.6,10.864a2.886,2.886,0,0,0,2.434,3.276l13.906,2.051A2.885,2.885,0,0,0,340.46,163.021Z" transform="translate(-320.813 -106.723)" fill="#dfdfdf" stroke="#1d1e1c" stroke-width="0.75"/>
            <path id="Path_6892" data-name="Path 6892" d="M332.846,153.05l-6.242-.92a4.337,4.337,0,0,1-3.655-4.923l1.1-7.466c.018-.132.045-.264.076-.394l2.452-10.071a2.815,2.815,0,0,1,2.351-2.122h0a2.815,2.815,0,0,1,2.752,1.271l4.518,7.059a12.64,12.64,0,0,1,1.99,7.095h0a12.763,12.763,0,0,1-.132,1.566l-.834,5.655A3.854,3.854,0,0,1,332.846,153.05Z" transform="translate(-319.458 -100.467)" fill="#fff" stroke="#1d1e1c" stroke-width="0.75"/>
            <rect id="Rectangle_440" data-name="Rectangle 440" width="6.099" height="4.387" transform="translate(18.773 11.747) rotate(-171.608)" fill="#88d4dc" stroke="#1d1e1c" stroke-width="0.75"/>
            <path id="Path_6893" data-name="Path 6893" d="M344.5,123.212l-2.937-8.468,3.04.448.379-2.577-11.232-1.657s-6.443.2-7.736,2.1,2.064,2.7,3.525,3.558,1.439,1.022,1.293,2.013l6.035.89.17-1.156.172-1.157,1.462.216.175-1.189,1.322.195S340.537,122.627,344.5,123.212Z" transform="translate(-317.626 -110.958)" fill="#fff" stroke="#1d1e1c" stroke-width="0.75"/>
          </g>
          <path id="Path_6894" data-name="Path 6894" d="M324.406,121.805l7.337-6.636s.4,3.924-1.545,4.42l8.046-2.984c4.325-1.237,7.738,1.575,7.738,4.392,0,0-2.712,5.037-5.118,6.361-1.792.986-11.022,1.156-16.458.4" transform="translate(-288.969 -0.135)" fill="#fbd1be" stroke="#1d1e1c" stroke-linecap="round" stroke-linejoin="round" stroke-width="0.75"/>
          <path id="Path_6895" data-name="Path 6895" d="M318.516,117.854l11.522-.147-.485,10.876c-1.528.049-6.282,1.256-11.885,2.186" transform="translate(-293.341 1.511)" fill="#ec008c" stroke="#1d1e1c" stroke-linecap="round" stroke-linejoin="round" stroke-width="0.75"/>
        </g>
      </g>
    </g>
  </g>
</svg>
